<svg width="55" height="56" viewBox="0 0 55 56" fill="none" xmlns="http://www.w3.org/2000/svg">
<path fill-rule="evenodd" clip-rule="evenodd" d="M10.6736 0.0109328H43.4707C49.3324 0.0109328 54.1333 4.81042 54.1333 10.6704V39.03C54.1333 44.8899 49.3324 49.6894 43.4707 49.6894H34.8969C34.2735 49.6894 33.7267 49.9081 33.2674 50.3344L28.9695 54.4123C27.8978 55.4291 26.2137 55.4291 25.1529 54.3905L20.9753 50.3454C20.516 49.9081 19.9692 49.6785 19.3349 49.6785H10.6626C4.80092 49.6785 0 44.879 0 39.019V10.6594C0 4.79948 4.80092 0 10.6626 0L10.6736 0.0109328ZM34.1532 22.8495V31.8143C34.1532 32.525 35.3343 33.2575 36.1217 32.4594C36.6576 31.9237 36.4498 30.8085 36.4498 29.8027V23.7678C36.4498 23.0353 36.4498 22.5106 36.8872 22.1935C37.3575 21.8546 37.9043 21.8655 38.3089 22.2591C38.7573 22.6855 38.6917 23.0681 38.6917 23.8881C38.6917 26.5447 38.6917 29.2123 38.6917 31.869C38.6917 33.5526 38.5714 34.2195 39.3041 35.28C41.0976 37.8711 45.5376 36.7013 45.5376 33.3559V25.0251C45.5376 23.6585 43.2192 23.418 43.241 25.2V32.3282C43.241 32.9732 43.3504 34.3945 42.1474 34.3945C41.5241 34.3945 41.0101 33.9572 40.9992 33.1919C40.9445 31.0162 40.9992 28.2393 40.9992 26.009C40.9992 24.7518 41.1741 22.598 40.6711 21.5594C39.0526 18.1921 34.1532 19.6024 34.1532 22.8385V22.8495ZM11.8328 22.1607H16.1088V29.7371C16.1088 32.8529 20.8987 34.4491 22.6048 31.06C22.9547 30.3603 22.9438 30.0214 22.9438 28.9937V19.4494C22.9547 17.9079 24.617 17.8969 25.0216 18.8153C25.1857 19.187 25.131 19.7774 25.131 20.3131C25.131 25.6155 25.0763 31.1365 25.131 36.3952C25.1638 39.4235 29.5054 40.812 31.2989 38.1335C32.0316 37.0402 31.9223 36.5701 31.9223 34.8427C31.9223 33.1591 31.8457 13.7971 31.966 13.338C32.2722 12.1244 33.6283 12.2775 34.0001 13.01C34.3938 13.7862 33.9673 15.12 34.2844 15.7213C34.8641 16.8255 36.4717 16.3773 36.4717 15.2621V13.3708C36.4717 10.9546 33.4861 9.24912 31.2333 10.6594C29.5491 11.709 29.6366 13.1302 29.6366 14.9232C29.6366 16.6178 29.7132 35.8923 29.6038 36.3733C29.4507 37.1167 28.5977 37.4994 27.9306 37.073C27.3291 36.6903 27.4494 35.8923 27.4494 35.1379V19.1651C27.4494 16.093 23.25 14.5515 21.2596 17.3394C20.5597 18.3233 20.6691 19.1214 20.6691 20.7176C20.6691 23.3742 20.6691 26.0418 20.6691 28.6985C20.6691 29.4419 20.7128 29.9776 20.2973 30.3384C19.8926 30.6992 19.3021 30.7101 18.8646 30.3931C18.2304 29.923 18.4272 27.9769 18.4272 26.8618C18.4272 19.2198 19.0724 19.8539 15.4307 19.8539C14.2278 19.8539 11.6797 20.0835 11.1876 19.4166C10.8485 18.9465 10.8595 18.3998 11.2532 17.9953C11.6797 17.5471 12.0624 17.6127 12.8826 17.6127C15.4854 17.6127 14.7199 17.6127 17.3336 17.6127C18.7881 17.6127 18.7881 15.3277 17.3336 15.3387C15.7041 15.3496 11.7344 15.0872 10.5751 15.6448C7.19591 17.2628 8.6504 22.1607 11.8547 22.1607H11.8328Z" fill="#05D75C"/>
</svg>
